<svg viewBox="0 0 24 24" xmlns="http://www.w3.org/2000/svg"><g fill-rule="evenodd"><path fill="none" d="M0 0h24v24H0z"/><path d="M12 17.333A1.333 1.333 0 1 1 12 20a1.333 1.333 0 0 1 0-2.667Zm6.667 0a1.333 1.333 0 1 1 0 2.667 1.333 1.333 0 0 1 0-2.667Zm-13.334 0a1.333 1.333 0 1 1 0 2.667 1.333 1.333 0 0 1 0-2.667ZM12 10.667a1.333 1.333 0 1 1 0 2.666 1.333 1.333 0 0 1 0-2.666Zm-6.667 0a1.333 1.333 0 1 1 0 2.666 1.333 1.333 0 0 1 0-2.666Zm13.334 0a1.333 1.333 0 1 1 0 2.666 1.333 1.333 0 0 1 0-2.666ZM12 4a1.333 1.333 0 1 1 0 2.667A1.333 1.333 0 0 1 12 4ZM5.333 4a1.333 1.333 0 1 1 0 2.667 1.333 1.333 0 0 1 0-2.667Zm13.334 0a1.333 1.333 0 1 1 0 2.667 1.333 1.333 0 0 1 0-2.667Z"/></g></svg>