<svg xmlns="http://www.w3.org/2000/svg" viewBox="0 0 24 24"><path d="M12.006 14.75a3.612 3.612 0 0 1-3.658-3.4l-.3-2.606a3.943 3.943 0 0 1 .86-3.188 4 4 0 0 1 3.098-1.306A4 4 0 0 1 15.1 5.56a3.95 3.95 0 0 1 .858 3.206l-.292 2.588a3.614 3.614 0 0 1-3.66 3.396Zm0-9a2.53 2.53 0 0 0-1.961.792 2.482 2.482 0 0 0-.505 2.015l.3 2.628a2.172 2.172 0 0 0 4.338 0l.295-2.609a2.507 2.507 0 0 0-.5-2.034 2.539 2.539 0 0 0-1.967-.792Zm6.98 14.73a5.952 5.952 0 0 0-2.83-4.77.5.5 0 0 0-.7.1l-.31.34a.4.4 0 0 0 .1.69A4.855 4.855 0 0 1 17.3 19.5H6.706a4.913 4.913 0 0 1 2.05-2.66.4.4 0 0 0 .11-.69l-.31-.34a.5.5 0 0 0-.7-.1 5.952 5.952 0 0 0-2.83 4.77.5.5 0 0 0 .5.52h12.96a.5.5 0 0 0 .5-.52Z"/></svg>